# xmcd
#
# Track frame offsets:
#	150
#	13150
#	23783
#	34509
#	47110
#	58882
#	70812
#	83928
#	98070
#	114034
#	126171
#	137988
#	147680
#	157507
#	168204
# Disc length: 2410 seconds
# Revision: 1
# Processed by: cddbd v1.5.2PL0 Copyright (c) Steve Scherf et al.
#
# Submitted via: libkcddb 0.31
#
DISCID=c409680f
DTITLE=Various Artist - Country Legends
DYEAR=2005
DGENRE=Country
TTITLE0=Hank Williams - Jambalaya
TTITLE1=Gene Autry - Don't Fence Me In
TTITLE2=Hank Williams - I Can't Help It
TTITLE3=Tennesse Ernie Ford - Stack-O-Lee
TTITLE4=Hank Williams - Why Should We Try Anymore
TTITLE5=Johnny Bond - Sick, Sober And Sorry
TTITLE6=Hank Williams - Hey, Good Lookin'
TTITLE7=Grayson and Whitter - Tom Dooley
TTITLE8=Susan Raye - L.A. International Airposrt
TTITLE9=Tennessee Ernie Ford - Ocean Of Tears
TTITLE10=Roy Drusky - Three Hearts In A Tangle
TTITLE11=Merle Travis - 16 Tons
TTITLE12=Hank Williams - Honky Tonk Blues
TTITLE13=Spade Cooley - Indian Summer
TTITLE14=Porter Wagoner - Satisfied Mind
EXTD=
EXTT0=
EXTT1=
EXTT2=
EXTT3=
EXTT4=
EXTT5=
EXTT6=
EXTT7=
EXTT8=
EXTT9=
EXTT10=
EXTT11=
EXTT12=
EXTT13=
EXTT14=
PLAYORDER=
